<?xml version="1.0" standalone="no"?>
<!DOCTYPE svg PUBLIC "-//W3C//DTD SVG 20010904//EN"
 "http://www.w3.org/TR/2001/REC-SVG-20010904/DTD/svg10.dtd">
<svg version="1.0" xmlns="http://www.w3.org/2000/svg"
 width="48.000000pt" height="47.000000pt" viewBox="0 0 48.000000 47.000000"
 preserveAspectRatio="xMidYMid meet">

<g transform="translate(0.000000,47.000000) scale(0.100000,-0.100000)"
fill="#000000" stroke="none">
<path d="M163 366 c-38 -17 -63 -61 -63 -112 0 -54 53 -104 110 -104 23 0 51
5 62 11 17 9 26 5 64 -32 24 -24 44 -39 44 -33 0 5 -18 27 -39 48 -39 38 -39
39 -24 71 45 94 -58 194 -154 151z m118 -35 c49 -49 38 -125 -23 -157 -79 -41
-169 38 -138 121 26 70 109 88 161 36z"/>
</g>
</svg>
