<?xml version="1.0" standalone="no"?>
<!DOCTYPE svg PUBLIC "-//W3C//DTD SVG 20010904//EN"
 "http://www.w3.org/TR/2001/REC-SVG-20010904/DTD/svg10.dtd">
<svg version="1.0" xmlns="http://www.w3.org/2000/svg"
 width="30.000000pt" height="35.000000pt" viewBox="0 0 30.000000 35.000000"
 preserveAspectRatio="xMidYMid meet">

<g transform="translate(0.000000,35.000000) scale(0.100000,-0.100000)"
fill="#000000" stroke="none">
<path d="M10 175 l0 -175 140 0 140 0 0 143 0 143 -33 32 c-33 32 -33 32 -140
32 l-107 0 0 -175z m200 125 c0 -27 3 -30 30 -30 l30 0 0 -125 0 -125 -120 0
-120 0 0 155 0 155 90 0 90 0 0 -30z m35 0 c3 -5 1 -10 -4 -10 -6 0 -11 5 -11
10 0 6 2 10 4 10 3 0 8 -4 11 -10z"/>
<path d="M75 299 c-4 -5 -4 -21 -1 -33 4 -15 0 -28 -9 -36 -30 -25 -17 -40 35
-40 54 0 68 19 31 42 -15 9 -17 15 -8 29 8 13 7 21 -2 33 -15 18 -37 21 -46 5z
m35 -19 c0 -5 -4 -10 -10 -10 -5 0 -10 5 -10 10 0 6 5 10 10 10 6 0 10 -4 10
-10z m5 -60 c4 -6 -6 -10 -22 -10 -22 0 -25 2 -13 10 19 12 27 12 35 0z"/>
<path d="M175 240 c-4 -6 10 -10 34 -10 23 0 41 5 41 10 0 6 -15 10 -34 10
-19 0 -38 -4 -41 -10z"/>
<path d="M175 200 c-4 -6 10 -10 34 -10 23 0 41 5 41 10 0 6 -15 10 -34 10
-19 0 -38 -4 -41 -10z"/>
<path d="M98 153 c28 -2 76 -2 105 0 28 2 5 3 -53 3 -58 0 -81 -1 -52 -3z"/>
<path d="M50 110 c0 -6 40 -10 100 -10 60 0 100 4 100 10 0 6 -40 10 -100 10
-60 0 -100 -4 -100 -10z"/>
<path d="M50 70 c0 -13 87 -13 95 0 4 6 -13 10 -44 10 -28 0 -51 -4 -51 -10z"/>
<path d="M175 70 c3 -5 8 -10 11 -10 2 0 4 5 4 10 0 6 -5 10 -11 10 -5 0 -7
-4 -4 -10z"/>
</g>
</svg>
