<?xml version="1.0" standalone="no"?>
<!DOCTYPE svg PUBLIC "-//W3C//DTD SVG 20010904//EN"
 "http://www.w3.org/TR/2001/REC-SVG-20010904/DTD/svg10.dtd">
<svg version="1.0" xmlns="http://www.w3.org/2000/svg"
 width="42.000000pt" height="48.000000pt" viewBox="0 0 42.000000 48.000000"
 preserveAspectRatio="xMidYMid meet">

<g transform="translate(0.000000,48.000000) scale(0.100000,-0.100000)"
fill="#000000" stroke="none">
<path fill="white" d="M155 455 c-31 -30 -32 -72 -5 -122 11 -21 20 -43 20 -49 0 -6 7 -17
15 -24 8 -7 15 -21 15 -31 0 -17 -8 -19 -65 -19 -57 0 -65 -2 -65 -18 0 -11
-9 -27 -21 -38 -14 -13 -18 -25 -14 -42 4 -15 0 -31 -9 -41 -9 -9 -17 -28 -18
-42 l-3 -24 205 0 205 0 -3 24 c-1 14 -9 33 -18 42 -9 10 -13 26 -9 41 4 17 0
29 -14 42 -12 11 -21 27 -21 38 0 16 -8 18 -65 18 -57 0 -65 2 -65 19 0 10 7
24 15 31 8 7 15 18 15 24 0 6 9 28 20 49 11 20 20 51 20 67 0 41 -39 80 -80
80 -19 0 -40 -9 -55 -25z m108 -26 c17 -24 18 -30 6 -55 -17 -35 -49 -45 -49
-15 0 12 -4 21 -10 21 -5 0 -10 -9 -10 -20 0 -22 -22 -27 -38 -7 -22 27 -22
54 -1 81 28 35 73 33 102 -5z m-28 -119 c-3 -5 -15 -10 -25 -10 -10 0 -22 5
-25 10 -4 6 7 10 25 10 18 0 29 -4 25 -10z m-12 -37 c-7 -2 -19 -2 -25 0 -7 3
-2 5 12 5 14 0 19 -2 13 -5z m-23 -89 c0 -3 -9 -17 -20 -31 -12 -16 -18 -34
-14 -45 9 -29 -13 -50 -36 -36 -15 9 -16 16 -8 31 8 15 5 26 -11 48 -12 15
-21 31 -21 34 0 3 25 5 55 5 30 0 55 -3 55 -6z m130 -3 c0 -5 -7 -14 -16 -22
-10 -8 -14 -24 -12 -45 3 -22 -1 -35 -13 -42 -22 -14 -43 9 -35 36 4 11 -2 29
-14 45 -11 14 -20 28 -20 31 0 3 25 6 55 6 30 0 55 -4 55 -9z m-229 -47 c11
-14 10 -18 -6 -30 -16 -12 -21 -12 -33 0 -17 17 -9 46 11 46 8 0 21 -7 28 -16z
m133 -1 c4 -9 0 -23 -9 -32 -13 -14 -17 -14 -30 0 -19 19 -10 49 15 49 10 0
21 -8 24 -17z m133 1 c3 -8 -2 -23 -11 -32 -15 -15 -17 -15 -33 0 -13 14 -14
20 -3 32 16 20 39 20 47 0z m-243 -86 c15 -24 5 -30 -53 -26 l-52 3 17 23 c19
27 71 27 88 0z m134 -5 l14 -23 -61 0 c-63 0 -66 2 -38 38 16 20 68 10 85 -15z
m124 10 c29 -26 21 -33 -37 -33 -38 0 -55 4 -55 13 0 36 59 50 92 20z"/>
</g>
</svg>
